<svg width="42" height="40" viewBox="0 0 42 40" fill="none" xmlns="http://www.w3.org/2000/svg">
<g filter="url(#filter0_d_7521_5579)">
<rect x="6.2738" y="6.27344" width="25.6182" height="25.6182" rx="12.8091" fill="url(#paint0_linear_7521_5579)"/>
</g>
<path d="M16.8026 13.344L13.3502 16.6941C13.2603 16.7813 13.1063 16.719 13.1063 16.5945V13.8796C13.1063 13.4561 13.4657 13.1074 13.902 13.1074H16.6999C16.8283 13.1074 16.8924 13.2569 16.8026 13.344Z" fill="white"/>
<path d="M25.2091 13.5931C25.2091 13.7177 25.1577 13.8422 25.0679 13.9294C25.0551 13.9418 25.0551 13.9418 25.0422 13.9543L21.962 16.9432L18.4197 20.3804L17.2903 21.4764L17.0465 21.7005L14.4796 24.2037L13.3373 25.3121C13.1962 25.1627 13.1063 24.9759 13.1063 24.7517V20.1687C13.1063 19.9819 13.1833 19.8075 13.3245 19.6706L19.87 13.3191C20.0112 13.1821 20.1909 13.1074 20.3834 13.1074H24.7085C24.9781 13.1074 25.2091 13.3316 25.2091 13.5931Z" fill="white"/>
<path d="M25.5062 21.9833C25.5062 22.0455 25.4805 22.1078 25.442 22.1576C25.4291 22.1701 25.4163 22.1825 25.4035 22.195L22.4002 25.1216C22.1307 25.3831 21.7585 25.5326 21.3735 25.5326H13.9039C13.6858 25.5326 13.4804 25.4454 13.3392 25.3084L14.4687 24.2125L17.0483 21.6968L17.2794 21.4727C17.4205 21.6097 17.6259 21.6968 17.8441 21.6968H25.211C25.3778 21.6968 25.5062 21.8338 25.5062 21.9833Z" fill="white"/>
<path d="M29.8021 0C29.8021 0 30.0329 2.154 30.9318 3.0529C31.8306 3.9518 33.9846 4.18257 33.9846 4.18257C33.9846 4.18257 31.8306 4.41334 30.9318 5.31224C30.0329 6.21114 29.8021 8.36514 29.8021 8.36514C29.8021 8.36514 29.5713 6.21114 28.6724 5.31224C27.7735 4.41334 25.6195 4.18257 25.6195 4.18257C25.6195 4.18257 27.7735 3.9518 28.6724 3.0529C29.5713 2.154 29.8021 0 29.8021 0Z" fill="#051D53"/>
<path d="M35.0257 7.8418C35.0257 7.8418 35.1988 9.45729 35.873 10.1315C36.5472 10.8056 38.1626 10.9787 38.1626 10.9787C38.1626 10.9787 36.5472 11.1518 35.873 11.826C35.1988 12.5002 35.0257 14.1157 35.0257 14.1157C35.0257 14.1157 34.8526 12.5002 34.1785 11.826C33.5043 11.1518 31.8888 10.9787 31.8888 10.9787C31.8888 10.9787 33.5043 10.8056 34.1785 10.1315C34.8526 9.45729 35.0257 7.8418 35.0257 7.8418Z" fill="#654CFF"/>
<path d="M39.2123 1.56641C39.2123 1.56641 39.3276 2.6434 39.7771 3.09285C40.2265 3.5423 41.3035 3.65769 41.3035 3.65769C41.3035 3.65769 40.2265 3.77308 39.7771 4.22253C39.3276 4.67198 39.2123 5.74898 39.2123 5.74898C39.2123 5.74898 39.0969 4.67198 38.6474 4.22253C38.198 3.77308 37.121 3.65769 37.121 3.65769C37.121 3.65769 38.198 3.5423 38.6474 3.09285C39.0969 2.6434 39.2123 1.56641 39.2123 1.56641Z" fill="#A1AAFF"/>
<defs>
<filter id="filter0_d_7521_5579" x="-5.00679e-05" y="1.80332" width="38.166" height="38.1659" filterUnits="userSpaceOnUse" color-interpolation-filters="sRGB">
<feFlood flood-opacity="0" result="BackgroundImageFix"/>
<feColorMatrix in="SourceAlpha" type="matrix" values="0 0 0 0 0 0 0 0 0 0 0 0 0 0 0 0 0 0 127 0" result="hardAlpha"/>
<feOffset dy="1.80373"/>
<feGaussianBlur stdDeviation="3.13693"/>
<feComposite in2="hardAlpha" operator="out"/>
<feColorMatrix type="matrix" values="0 0 0 0 0.488538 0 0 0 0 0 0 0 0 0 0.610673 0 0 0 0.3 0"/>
<feBlend mode="normal" in2="BackgroundImageFix" result="effect1_dropShadow_7521_5579"/>
<feBlend mode="normal" in="SourceGraphic" in2="effect1_dropShadow_7521_5579" result="shape"/>
</filter>
<linearGradient id="paint0_linear_7521_5579" x1="10.4564" y1="8.88754" x2="27.1867" y2="29.539" gradientUnits="userSpaceOnUse">
<stop offset="0.0624894" stop-color="#DF8DFF"/>
<stop offset="0.496582" stop-color="#3371FF"/>
<stop offset="0.649043" stop-color="#004EFF"/>
<stop offset="1" stop-color="#FF4CAE"/>
</linearGradient>
</defs>
</svg>
