<svg width="592" height="112" viewBox="0 0 592 112" fill="none" xmlns="http://www.w3.org/2000/svg">
<g clip-path="url(#clip0_6643_52825)">
<path d="M32.436 3.40358L2.13988 32.8015C1.3515 33.5664 0 33.02 0 31.9271V8.10285C0 4.38714 3.15349 1.32715 6.98274 1.32715H31.535C32.6613 1.32715 33.2243 2.63857 32.436 3.40358Z" fill="#F44767"/>
<path d="M106.205 5.58928C106.205 6.68214 105.755 7.77499 104.966 8.54C104.854 8.64928 104.854 8.64928 104.741 8.75857L77.7112 34.9871L46.6267 65.1499L36.7156 74.7671L34.5759 76.7341L12.0509 98.7006L2.02725 108.427C0.788374 107.116 0 105.476 0 103.509V63.2922C0 61.6528 0.675749 60.1227 1.91462 58.9207L59.3533 3.185C60.5922 1.98286 62.1689 1.32715 63.8583 1.32715H101.813C104.178 1.32715 106.205 3.29428 106.205 5.58928Z" fill="#2C4E9B"/>
<path d="M108.798 79.2409C108.798 79.7874 108.573 80.3339 108.235 80.771C108.122 80.8802 108.01 80.9896 107.897 81.0988L81.5427 106.781C79.1776 109.076 75.9114 110.387 72.5328 110.387H6.98504C5.07042 110.387 3.26841 109.622 2.02954 108.42L11.9405 98.803L34.5781 76.7273L36.6054 74.7603C37.8442 75.9624 39.6463 76.7273 41.5609 76.7273H106.208C107.672 76.7273 108.798 77.9295 108.798 79.2409Z" fill="#27B7E4"/>
<path d="M131.216 83.5772V74.7302L160.392 40.5216H131.216V28.7256H178.626V37.5726L149.451 71.7812H179.233V83.5772H131.216Z" fill="#2C4E9B"/>
<path d="M241.833 55.8457C241.833 59.9744 241.226 63.5132 239.403 67.052C237.579 70.5908 235.756 73.5398 232.716 75.899C230.285 78.2583 226.638 80.6174 222.992 81.7971C219.345 82.9767 215.089 84.1564 210.836 84.1564C206.58 84.1564 202.933 83.5665 198.678 81.7971C195.031 80.6174 191.992 78.2583 188.954 75.899C186.522 73.5398 184.09 70.5908 182.267 67.052C180.445 63.5132 179.836 59.9744 179.836 55.8457C179.836 51.717 180.445 48.1782 182.267 44.6394C184.09 41.1006 185.914 38.1516 188.954 35.7923C191.384 33.4332 195.031 31.074 198.678 29.8944C202.325 28.7147 206.58 27.5352 210.836 27.5352C215.089 27.5352 218.736 28.125 222.992 29.8944C226.638 31.074 229.677 33.4332 232.716 35.7923C235.148 38.1516 237.579 41.1006 239.403 44.6394C241.226 48.1782 241.833 51.717 241.833 55.8457ZM227.245 55.8457C227.245 53.4866 226.638 51.717 226.03 49.3579C225.422 47.5885 224.207 45.8191 222.383 44.0497C220.56 42.2803 219.345 41.6904 217.521 40.5109C215.698 39.921 213.266 39.3312 211.442 39.3312C209.012 39.3312 207.189 39.921 205.365 40.5109C203.542 41.1006 201.718 42.2803 200.502 44.0497C199.286 45.2292 198.071 46.9986 196.855 49.3579C196.248 51.1273 195.639 53.4866 195.639 55.8457C195.639 58.205 196.248 59.9744 196.855 62.3336C197.463 64.103 198.678 65.8724 200.502 67.6418C201.718 68.8214 203.542 70.001 205.365 71.1807C207.189 71.7704 209.619 72.3602 211.442 72.3602C213.874 72.3602 215.698 71.7704 217.521 71.1807C219.345 70.5908 221.168 69.4113 222.383 67.6418C223.598 65.8724 224.815 64.6927 226.03 62.3336C226.638 59.9744 227.245 58.205 227.245 55.8457Z" fill="#2C4E9B"/>
<path d="M249.133 83.5817V28.1401H294.111V39.9361H263.112V49.9629H283.779V61.1692H263.112V82.9918H249.133V83.5817Z" fill="#2C4E9B"/>
<path d="M298.368 39.9361V28.1401H349.424V39.9361H330.582V82.9918H316.603V39.9361H298.368Z" fill="#2C4E9B"/>
<path d="M380.419 83.5772H365.832L353.067 28.7256H367.655L374.342 62.9342L384.066 28.7256H396.831L406.556 62.9342L413.242 28.7256H427.221L414.457 83.5772H399.869L390.145 48.1891L380.419 83.5772Z" fill="#2C4E9B"/>
<path d="M423.573 83.5772L446.67 28.7256H462.473L485.571 83.5772H470.375L464.905 70.0118H443.023L437.553 83.5772H423.573ZM447.279 59.3954H461.258L454.572 41.7012L447.279 59.3954Z" fill="#2C4E9B"/>
<path d="M489.825 83.5817V28.1401H519.001C522.04 28.1401 524.471 28.7298 526.902 29.3197C529.333 29.9095 531.765 31.679 532.98 32.8585C534.804 34.6279 536.019 36.3973 537.236 38.1667C538.451 40.526 538.451 42.8853 538.451 45.2444C538.451 48.7832 537.236 51.7323 535.412 54.6813C533.589 57.6302 531.157 59.3998 527.51 61.1692L539.666 82.9918H523.863L512.922 62.9386H502.59V82.9918H489.825V83.5817ZM517.784 39.9361H503.805V52.322H517.784C520.216 52.322 521.431 51.7323 523.255 50.5526C524.471 49.373 525.078 48.1935 525.078 45.8342C525.078 43.475 524.471 42.2954 523.255 41.1158C521.431 40.526 519.608 39.9361 517.784 39.9361Z" fill="#2C4E9B"/>
<path d="M545.744 83.5817V28.1401H590.723V39.9361H559.724V49.9629H579.782V61.1692H559.724V71.7856H590.723V83.5817H545.744Z" fill="#2C4E9B"/>
</g>
<defs>
<clipPath id="clip0_6643_52825">
<rect width="591.882" height="111.676" fill="white"/>
</clipPath>
</defs>
</svg>
